# xmcd
#
# Track frame offsets:
#	150
#	17283
#	34720
#	51160
#	68457
#	88800
#	110683
#	127839
#	143025
#	157968
#	188011
#
# Disc length: 4440 seconds
#
# Revision: 1
# Processed by: cddbd v1.5.2PL0 Copyright (c) Steve Scherf et al.
# Submitted via: audiograbber 1.83.01
#
DISCID=8111560b
DTITLE=Mighty 44 - Headbanger
DYEAR=2004
DGENRE=Electronic
TTITLE0=This Love Ain't Going On
TTITLE1=Chitty Chitty Bang Bang
TTITLE2=Headbanger
TTITLE3=Hey DJ
TTITLE4=Hot Wheels
TTITLE5=Calling Your Name
TTITLE6=Wild Wild West
TTITLE7=Take U Home
TTITLE8=Up'n Down (Smack That Sucka
TTITLE9=Good, Bad And Ugly
TTITLE10=Data Track
EXTD=TR.
EXTT0=
EXTT1=
EXTT2=
EXTT3=
EXTT4=
EXTT5=
EXTT6=
EXTT7=
EXTT8=
EXTT9=
EXTT10=
PLAYORDER=
